<?xml version="1.0" encoding="utf-8"?>
<!-- Svg Vector Icons : http://www.onlinewebfonts.com/icon -->
<!DOCTYPE svg PUBLIC "-//W3C//DTD SVG 1.1//EN" "http://www.w3.org/Graphics/SVG/1.1/DTD/svg11.dtd">
<svg fill="white" version="1.1" xmlns="http://www.w3.org/2000/svg" xmlns:xlink="http://www.w3.org/1999/xlink" x="0px" y="0px" viewBox="0 0 1000 1000" enable-background="new 0 0 1000 1000" xml:space="preserve">
<metadata> Svg Vector Icons : http://www.onlinewebfonts.com/icon </metadata>
<g><path d="M983.3,484.4L760.6,261.7c-4.5-4.5-8.9-6.7-15.6-6.7c-13.4,0-22.3,8.9-22.3,22.3c0,6.7,2.2,11.1,6.7,15.6l184.9,184.9h-882c-13.4,0-22.3,8.9-22.3,22.3c0,13.4,8.9,22.3,22.3,22.3h882L729.4,707.1c-4.5,4.5-6.7,8.9-6.7,15.6c0,13.4,8.9,22.3,22.3,22.3c6.7,0,11.1-2.2,15.6-6.7l222.7-222.7c4.5-4.5,6.7-8.9,6.7-15.6S987.8,488.9,983.3,484.4z"/></g>
</svg>